PathFileType	4	(X/Y/Z)	/home/ubuntu/injury_detection/risk_analysis_package/data/KD_injured/trc_data/trials/KD_injured.trc
DataRate	CameraRate	NumFrames	NumMarkers	Units	OrigDataRate	OrigDataStartFrame	OrigNumFrames
30	30	4	105	m	30	85	98
Frame#	Time	BLTI			BRTI			C7			CHIN			CLAV			FBBT			FLTI			FRBT			FRTI			LAKI			LANK			LBAC			LBHD			LBWT			LELB			LELS			LELSO			LFBB			LFBT			LFFB			LFFT			LFHD			LFIN			LFLB			LFLT			LFMB			LFMT			LFPI			LFRM			LFWT			LHAP			LHBA			LHEB			LHEE			LHFR			LHME			LHPI			LHTH			LHTO			LKNE			LKNI			LMT5			LSCA			LSHN			LSHO			LTIA			LTIB			LTIC			LTOE			LTOP			LTOS			LUMB			LUMC			LWRA			LWRB			NOSE			RAKI			RANK			RBAC			RBHD			RBWT			RELB			RELS			RELSO			RFBB			RFBT			RFFB			RFFT			RFHD			RFIN			RFLB			RFLT			RFMB			RFMT			RFPI			RFRM			RFWT			RHAP			RHBA			RHEB			RHEE			RHFR			RHME			RHPI			RHTH			RHTO			RIBL			RIBR			RITL			RITR			RKNE			RKNI			RMT5			RSCA			RSHN			RSHO			RTIA			RTIB			RTIC			RTOE			RTOP			RTOS			RWRA			RWRB			THD		
		X1	Y1	Z1	X2	Y2	Z2	X3	Y3	Z3	X4	Y4	Z4	X5	Y5	Z5	X6	Y6	Z6	X7	Y7	Z7	X8	Y8	Z8	X9	Y9	Z9	X10	Y10	Z10	X11	Y11	Z11	X12	Y12	Z12	X13	Y13	Z13	X14	Y14	Z14	X15	Y15	Z15	X16	Y16	Z16	X17	Y17	Z17	X18	Y18	Z18	X19	Y19	Z19	X20	Y20	Z20	X21	Y21	Z21	X22	Y22	Z22	X23	Y23	Z23	X24	Y24	Z24	X25	Y25	Z25	X26	Y26	Z26	X27	Y27	Z27	X28	Y28	Z28	X29	Y29	Z29	X30	Y30	Z30	X31	Y31	Z31	X32	Y32	Z32	X33	Y33	Z33	X34	Y34	Z34	X35	Y35	Z35	X36	Y36	Z36	X37	Y37	Z37	X38	Y38	Z38	X39	Y39	Z39	X40	Y40	Z40	X41	Y41	Z41	X42	Y42	Z42	X43	Y43	Z43	X44	Y44	Z44	X45	Y45	Z45	X46	Y46	Z46	X47	Y47	Z47	X48	Y48	Z48	X49	Y49	Z49	X50	Y50	Z50	X51	Y51	Z51	X52	Y52	Z52	X53	Y53	Z53	X54	Y54	Z54	X55	Y55	Z55	X56	Y56	Z56	X57	Y57	Z57	X58	Y58	Z58	X59	Y59	Z59	X60	Y60	Z60	X61	Y61	Z61	X62	Y62	Z62	X63	Y63	Z63	X64	Y64	Z64	X65	Y65	Z65	X66	Y66	Z66	X67	Y67	Z67	X68	Y68	Z68	X69	Y69	Z69	X70	Y70	Z70	X71	Y71	Z71	X72	Y72	Z72	X73	Y73	Z73	X74	Y74	Z74	X75	Y75	Z75	X76	Y76	Z76	X77	Y77	Z77	X78	Y78	Z78	X79	Y79	Z79	X80	Y80	Z80	X81	Y81	Z81	X82	Y82	Z82	X83	Y83	Z83	X84	Y84	Z84	X85	Y85	Z85	X86	Y86	Z86	X87	Y87	Z87	X88	Y88	Z88	X89	Y89	Z89	X90	Y90	Z90	X91	Y91	Z91	X92	Y92	Z92	X93	Y93	Z93	X94	Y94	Z94	X95	Y95	Z95	X96	Y96	Z96	X97	Y97	Z97	X98	Y98	Z98	X99	Y99	Z99	X100	Y100	Z100	X101	Y101	Z101	X102	Y102	Z102	X103	Y103	Z103	X104	Y104	Z104	X105	Y105	Z105

86	2.83333	-0.502011	-0.48726	85.0079	-0.698103	-0.375236	85.6653	-0.226836	-0.173053	85.6463	-0.169176	-0.0870949	85.5402	-0.197934	-0.104465	85.5359	-0.532519	-0.556227	85.0556	-0.54682	-0.444212	85.0981	-0.728226	-0.382843	85.7544	-0.645285	-0.293182	85.7167	-0.577212	-0.621137	84.991	-0.519033	-0.635457	84.9587	-0.0122605	-0.119609	85.6968	-0.23913	-0.167192	85.3809	-0.104038	0.0505936	85.3227	0.066461	-0.0300168	85.8251	0.0316352	-0.00214198	85.7888	0.0911165	-0.033369	85.7981	-0.385232	-0.244104	85.1976	-0.255574	-0.195811	85.2467	-0.521026	-0.227266	85.2492	-0.352845	-0.105469	85.3106	-0.137355	-0.0828305	85.3868	0.266795	0.206144	85.9355	-0.450453	-0.270049	85.2644	-0.305424	-0.233132	85.3617	-0.443802	-0.175762	85.1972	-0.301354	-0.10106	85.2611	-0.43154	-0.688304	85.0957	0.126104	0.0491932	85.8883	-0.0967087	-0.114334	85.4497	0.00386344	-0.098397	85.6432	0.0119819	-0.0911068	85.7555	-0.546211	-0.709907	84.9359	-0.559681	-0.676341	84.9092	0.0551714	-0.0638569	85.6812	0.363743	0.23151	85.9481	0.246346	0.181763	85.986	0.206007	0.245095	85.9159	0.0471959	-0.14647	85.6919	-0.473972	-0.297791	85.202	-0.538037	-0.249651	85.1673	-0.465297	-0.679846	85.1197	-0.13841	-0.20818	85.6673	-0.447355	-0.378018	85.1141	-0.0621153	-0.260131	85.5969	-0.530894	-0.344138	85.1795	-0.521125	-0.492086	85.1026	-0.549515	-0.583671	85.0356	-0.462471	-0.676227	85.1706	-0.449516	-0.683102	85.0493	-0.520242	-0.689529	85.1171	-0.00299461	0.101874	85.472	-0.0254427	0.102976	85.4414	0.164932	0.195944	85.9258	0.182295	0.154378	85.9612	-0.152286	-0.0252732	85.4582	-0.722938	-0.467813	85.779	-0.7703	-0.503499	85.7516	-0.12752	0.0102648	85.7369	-0.302398	-0.103943	85.4078	-0.149096	0.0925129	85.3453	-0.0683188	0.155159	85.3437	-0.0517956	0.1322	85.4003	-0.104514	0.147066	85.3529	-0.525262	-0.0955327	85.5165	-0.409923	-0.0444328	85.4033	-0.516591	-0.116432	85.6768	-0.350169	-0.109425	85.5216	-0.235115	-0.000771999	85.4363	0.0700871	-0.126412	85.1598	-0.536593	-0.0632444	85.5976	-0.387306	0.0265635	85.5288	-0.484982	-0.150561	85.5466	-0.362854	-0.123501	85.4365	-0.842124	-0.499622	85.9301	-0.0341643	0.0795254	85.2723	-0.236833	0.0367965	85.5131	-0.176255	0.0659597	85.5346	-0.148781	0.144814	85.4649	-0.720374	-0.56697	85.7923	-0.717826	-0.552147	85.7511	-0.129384	0.0623223	85.4391	0.108065	-0.190324	85.0991	0.0601721	-0.0752838	85.1294	0.0893712	-0.0999169	85.2332	-0.205732	0.0942952	85.4531	-0.0255188	-0.0878643	85.4442	-0.152637	0.129018	85.5588	-0.12676	-0.153557	85.5215	-0.216849	-0.0415511	85.5471	-0.600869	-0.109542	85.6324	-0.538942	-0.16986	85.6349	-0.819834	-0.472766	85.9176	-0.262934	-0.0503601	85.6895	-0.710526	-0.272751	85.6735	-0.302219	-0.0152048	85.5838	-0.603303	-0.17433	85.6887	-0.664721	-0.281696	85.726	-0.733421	-0.418061	85.7717	-0.810285	-0.43034	85.9416	-0.840735	-0.535693	85.8896	-0.77261	-0.46908	85.9076	0.0272824	-0.0637077	85.2326	0.0117285	-0.0359205	85.1879	-0.22991	-0.0353156	85.3052
87	2.86667	-0.471067	-0.490922	84.4168	-0.693837	-0.369659	85.0733	-0.210117	-0.179624	85.0594	-0.154246	-0.0894347	84.9558	-0.181316	-0.108615	84.9506	-0.50173	-0.560311	84.4639	-0.518923	-0.44845	84.5057	-0.727415	-0.376112	85.1613	-0.641517	-0.288252	85.1262	-0.54375	-0.626084	84.3982	-0.484375	-0.639499	84.3677	0.00362636	-0.1247	85.1124	-0.219504	-0.168535	84.794	-0.0880071	0.0507494	84.7415	0.0816555	-0.0358652	85.2414	0.046125	-0.00774185	85.2061	0.106135	-0.038142	85.2143	-0.363073	-0.245949	84.6085	-0.235675	-0.196084	84.6612	-0.500306	-0.231271	84.6571	-0.335329	-0.107656	84.7237	-0.120734	-0.0808342	84.803	0.280644	0.199042	85.3566	-0.429401	-0.273258	84.6737	-0.287488	-0.23515	84.7744	-0.422633	-0.178409	84.6072	-0.283048	-0.102058	84.6756	-0.40089	-0.690599	84.5084	0.140997	0.0422204	85.3063	-0.0813636	-0.11507	84.8669	0.0193858	-0.102179	85.0591	0.0278793	-0.096613	85.1714	-0.509532	-0.714432	84.3443	-0.522741	-0.68113	84.3172	0.0702051	-0.0673684	85.0974	0.377405	0.225233	85.3692	0.26072	0.173719	85.4068	0.219379	0.237711	85.3379	0.0637808	-0.150286	85.1068	-0.451077	-0.300808	84.6109	-0.515066	-0.253569	84.5747	-0.43585	-0.68271	84.5308	-0.121364	-0.214276	85.0806	-0.420997	-0.380536	84.524	-0.0439064	-0.263945	85.0097	-0.506707	-0.347995	84.5872	-0.492572	-0.495884	84.511	-0.517818	-0.588106	84.4435	-0.435361	-0.679023	84.5818	-0.417032	-0.68568	84.461	-0.490349	-0.693365	84.5261	0.0114226	0.101235	84.8921	-0.0108158	0.102626	84.8613	0.178791	0.188141	85.3473	0.196748	0.146062	85.3819	-0.138543	-0.0253516	84.8753	-0.724595	-0.461056	85.1867	-0.771426	-0.495777	85.1573	-0.113532	0.00310278	85.154	-0.285088	-0.10797	84.8214	-0.133394	0.092264	84.7641	-0.0517229	0.156985	84.7651	-0.0361323	0.134053	84.822	-0.0879394	0.147857	84.7733	-0.5125	-0.0936283	84.9286	-0.394977	-0.0438938	84.8175	-0.507478	-0.113799	85.089	-0.337704	-0.109065	84.9366	-0.221924	-0.00320405	84.8529	0.0995154	-0.119257	84.5832	-0.525085	-0.0607515	85.0091	-0.373538	0.0270727	84.9429	-0.473428	-0.148928	84.9597	-0.348962	-0.123336	84.8515	-0.850851	-0.490454	85.3323	-0.0134876	0.0828503	84.6943	-0.222355	0.0348022	84.9304	-0.16108	0.0632671	84.953	-0.134728	0.143412	84.8844	-0.724621	-0.560243	85.1999	-0.719915	-0.545452	85.159	-0.112332	0.061743	84.8585	0.141042	-0.181476	84.523	0.0892423	-0.06803	84.553	0.115701	-0.0931586	84.6574	-0.189911	0.0914394	84.871	-0.00904331	-0.0876483	84.8602	-0.138967	0.1253	84.9788	-0.109507	-0.156722	84.9357	-0.200755	-0.0460437	84.9627	-0.590548	-0.106033	85.0424	-0.529783	-0.167346	85.0473	-0.827318	-0.464256	85.3209	-0.248267	-0.0581535	85.1042	-0.704659	-0.266985	85.0804	-0.286431	-0.0215848	84.9985	-0.596133	-0.170376	85.099	-0.661032	-0.276357	85.1346	-0.733846	-0.411113	85.1787	-0.817795	-0.421992	85.3451	-0.8485	-0.526569	85.292	-0.779543	-0.461788	85.313	0.0527088	-0.0584867	84.6553	0.0379205	-0.0306434	84.6104	-0.213852	-0.0348565	84.7212
88	2.9	-0.464336	-0.483571	83.4769	-0.667249	-0.373156	84.142	-0.189941	-0.176396	84.1193	-0.137792	-0.0849168	84.0149	-0.16335	-0.105549	84.0099	-0.495102	-0.553452	83.5234	-0.51069	-0.441979	83.567	-0.698786	-0.380041	84.2306	-0.615059	-0.291019	84.1936	-0.538634	-0.61795	83.4573	-0.479591	-0.630913	83.4262	0.0253388	-0.12282	84.1671	-0.203506	-0.1658	83.8541	-0.0727773	0.0516673	83.7977	0.10854	-0.0312716	84.2911	0.071875	-0.00357559	84.2568	0.132085	-0.0339039	84.2633	-0.351578	-0.24225	83.6698	-0.22282	-0.194121	83.7202	-0.487927	-0.226642	83.7207	-0.320601	-0.104893	83.7848	-0.106048	-0.0764935	83.8617	0.311661	0.204163	84.3976	-0.417064	-0.269286	83.736	-0.272934	-0.233052	83.8344	-0.410478	-0.174287	83.6697	-0.269058	-0.0998076	83.7357	-0.395947	-0.685146	83.5659	0.17003	0.0473784	84.3533	-0.0642572	-0.11365	83.9239	0.0398772	-0.0996814	84.1122	0.0522192	-0.0927966	84.2239	-0.504993	-0.705132	83.4012	-0.518349	-0.671186	83.3749	0.0920378	-0.0646469	84.1483	0.408861	0.229991	84.4071	0.293216	0.17929	84.4486	0.25004	0.24303	84.3807	0.0857161	-0.147457	84.1589	-0.440103	-0.296312	83.6734	-0.504205	-0.248242	83.6384	-0.43111	-0.677992	83.5883	-0.100804	-0.211405	84.1387	-0.411923	-0.375153	83.585	-0.025403	-0.261624	84.0661	-0.496582	-0.342741	83.6497	-0.484702	-0.489717	83.5713	-0.511824	-0.580849	83.503	-0.430954	-0.675586	83.6394	-0.411974	-0.67928	83.5185	-0.485499	-0.688721	83.5832	0.0294593	0.102343	83.9462	0.00657426	0.103778	83.9159	0.209489	0.193686	84.3917	0.228363	0.15183	84.426	-0.123987	-0.0209226	83.934	-0.694188	-0.465014	84.2561	-0.74104	-0.500203	84.2273	-0.0899611	0.0059703	84.2114	-0.269638	-0.106069	83.882	-0.11777	0.0932686	83.8209	-0.0356865	0.160512	83.822	-0.019211	0.138403	83.879	-0.0716576	0.151013	83.8307	-0.492885	-0.0950489	83.9932	-0.378093	-0.0443579	83.8796	-0.484449	-0.114701	84.1535	-0.317917	-0.108407	83.9979	-0.207981	-0.000170559	83.9123	0.117073	-0.11537	83.6409	-0.504257	-0.0620994	84.0739	-0.355016	0.0274139	84.0043	-0.452635	-0.149739	84.0237	-0.33072	-0.123128	83.9131	-0.818811	-0.496702	84.4027	0.00249678	0.0860779	83.7514	-0.204051	0.0367763	83.989	-0.141732	0.0675131	84.0121	-0.117315	0.147217	83.9422	-0.692949	-0.564344	84.269	-0.688805	-0.54928	84.2282	-0.094019	0.065583	83.9171	0.159076	-0.177265	83.5808	0.105613	-0.0645574	83.6105	0.133495	-0.0884843	83.7148	-0.171888	0.0943944	83.93	0.00665817	-0.0860741	83.9156	-0.11868	0.128405	84.0362	-0.0922328	-0.154109	83.9934	-0.181905	-0.0428156	84.0223	-0.568459	-0.108105	84.1087	-0.506882	-0.168547	84.1124	-0.795567	-0.470256	84.3913	-0.226862	-0.0546522	84.1645	-0.679404	-0.270696	84.1493	-0.266462	-0.0180434	84.0592	-0.571986	-0.172505	84.1654	-0.634533	-0.279405	84.2025	-0.704269	-0.415114	84.2481	-0.786211	-0.428011	84.4157	-0.816362	-0.532553	84.3623	-0.747783	-0.467333	84.3832	0.0698744	-0.0548582	83.7131	0.0542042	-0.027692	83.6681	-0.200666	-0.032427	83.7806
89	2.93333	-0.4484	-0.483833	83.2722	-0.66276	-0.371236	83.9376	-0.18022	-0.179086	83.9178	-0.12843	-0.0863419	83.8142	-0.153596	-0.107367	83.8089	-0.479258	-0.554008	83.3182	-0.496112	-0.442745	83.3618	-0.695364	-0.377857	84.0258	-0.610541	-0.289475	83.9898	-0.521571	-0.618645	83.2514	-0.462043	-0.631212	83.221	0.0343454	-0.124	83.9672	-0.191908	-0.167153	83.6525	-0.0633938	0.0523322	83.5985	0.117678	-0.0302431	84.0897	0.0803039	-0.00313857	84.0557	0.141068	-0.0324296	84.0618	-0.339479	-0.242308	83.4666	-0.211603	-0.193624	83.5186	-0.476416	-0.227756	83.5164	-0.31043	-0.105342	83.5828	-0.0957211	-0.0766078	83.6613	0.317676	0.208108	84.1956	-0.405407	-0.270063	83.5322	-0.262492	-0.233523	83.632	-0.398821	-0.174677	83.4664	-0.258556	-0.0996163	83.5343	-0.379879	-0.684835	83.3618	0.178286	0.049206	84.1518	-0.0550233	-0.113632	83.7238	0.0488621	-0.0997904	83.9115	0.0618261	-0.0926844	84.023	-0.486702	-0.705638	83.1957	-0.49993	-0.671785	83.1693	0.100666	-0.0638767	83.947	0.414516	0.235461	84.2046	0.299953	0.182808	84.2467	0.255341	0.246046	84.1792	0.0957521	-0.146783	83.9577	-0.427723	-0.296913	83.4693	-0.491779	-0.249134	83.4338	-0.415385	-0.677863	83.3837	-0.0905959	-0.213489	83.9376	-0.398004	-0.375306	83.3811	-0.0141512	-0.262289	83.8649	-0.483618	-0.343617	83.4449	-0.469844	-0.49032	83.3663	-0.495534	-0.581434	83.2974	-0.415911	-0.675349	83.4348	-0.395329	-0.679145	83.3141	-0.469636	-0.688917	83.3779	0.0379774	0.102556	83.7477	0.0152348	0.104069	83.7173	0.21564	0.196024	84.1903	0.235393	0.154387	84.2244	-0.114895	-0.0217137	83.7338	-0.691708	-0.46285	84.0514	-0.738421	-0.497623	84.022	-0.0826943	0.00367041	84.0115	-0.259002	-0.108479	83.6802	-0.108599	0.093665	83.6217	-0.0289614	0.159843	83.6211	-0.0123661	0.138351	83.6783	-0.0647813	0.14978	83.6297	-0.484988	-0.0942165	83.7905	-0.369122	-0.0438182	83.678	-0.478016	-0.11415	83.9509	-0.310086	-0.10847	83.7965	-0.199015	-0.00192693	83.7116	0.129145	-0.114287	83.4418	-0.49686	-0.0613252	83.8711	-0.346566	0.0274483	83.803	-0.445267	-0.149175	83.8212	-0.322257	-0.122945	83.7116	-0.818114	-0.494152	84.1966	0.0107762	0.0857057	83.551	-0.195424	0.0359969	83.7891	-0.134146	0.0659895	83.8115	-0.110949	0.145713	83.7411	-0.691211	-0.562144	84.064	-0.686518	-0.547011	84.0233	-0.085968	0.0644086	83.7166	0.172369	-0.175639	83.3819	0.116961	-0.0637386	83.4112	0.144851	-0.0869589	83.5156	-0.164433	0.0918082	83.729	0.0162056	-0.085695	83.7157	-0.110731	0.127297	83.8372	-0.0820107	-0.155159	83.7925	-0.172723	-0.0449673	83.8215	-0.561592	-0.106963	83.9053	-0.500436	-0.16778	83.9095	-0.794585	-0.467823	84.1856	-0.21881	-0.0580987	83.9631	-0.674229	-0.268696	83.9447	-0.25772	-0.0216433	83.8578	-0.566204	-0.171312	83.9619	-0.630009	-0.277703	83.9984	-0.701317	-0.412889	84.0434	-0.785289	-0.425696	84.2102	-0.815436	-0.529891	84.1561	-0.746685	-0.46516	84.1779	0.0806785	-0.0543304	83.5137	0.0647496	-0.0275774	83.4685	-0.190309	-0.0333306	83.5798
